PathFileType	4	(X/Y/Z)	/Users/itak/Documents/Research/Walk-IL/dataset/trc/00584_00009.trc
DataRate	CameraRate	NumFrames	NumMarkers	Units	OrigDataRate	OrigDataStartFrame	OrigNumFrames
100.000000	100.000000	4	71	mm	100.000000	47	95
Frame#	Time	RFHD			LBHD			STRN			CLAV			RWPS			LSHO			LBAK			RFRA			RAEL			RAOL			RBHD			C7			RUPA			LTOE			RWTS			RSHO			LMT1			RBAK			LUPA			LWTS			RHIP			RKNE			LWPS			LFRA			LAEL			RTIP			T10			LHIP			LAOL			RANK			LTHI			L3			LFHD			LPSI			RPSI			RTOE			RMT5			RHEE			LHEE			RMT1			RTHI			LANK			LTIP			RHTS			RASI			LHPS			LASI			RHPS			RIFD			LKNE			LHTS			LMT5			LIFD			*53			*54			*55			*56			*57			*58			*59			*60			*61			*62			*63			*64			*65			*66			*67			*68			*69			*70			
		X1	Y1	Z1	X2	Y2	Z2	X3	Y3	Z3	X4	Y4	Z4	X5	Y5	Z5	X6	Y6	Z6	X7	Y7	Z7	X8	Y8	Z8	X9	Y9	Z9	X10	Y10	Z10	X11	Y11	Z11	X12	Y12	Z12	X13	Y13	Z13	X14	Y14	Z14	X15	Y15	Z15	X16	Y16	Z16	X17	Y17	Z17	X18	Y18	Z18	X19	Y19	Z19	X20	Y20	Z20	X21	Y21	Z21	X22	Y22	Z22	X23	Y23	Z23	X24	Y24	Z24	X25	Y25	Z25	X26	Y26	Z26	X27	Y27	Z27	X28	Y28	Z28	X29	Y29	Z29	X30	Y30	Z30	X31	Y31	Z31	X32	Y32	Z32	X33	Y33	Z33	X34	Y34	Z34	X35	Y35	Z35	X36	Y36	Z36	X37	Y37	Z37	X38	Y38	Z38	X39	Y39	Z39	X40	Y40	Z40	X41	Y41	Z41	X42	Y42	Z42	X43	Y43	Z43	X44	Y44	Z44	X45	Y45	Z45	X46	Y46	Z46	X47	Y47	Z47	X48	Y48	Z48	X49	Y49	Z49	X50	Y50	Z50	X51	Y51	Z51	X52	Y52	Z52	X53	Y53	Z53	X54	Y54	Z54	X55	Y55	Z55	X56	Y56	Z56	X57	Y57	Z57	X58	Y58	Z58	X59	Y59	Z59	X60	Y60	Z60	X61	Y61	Z61	X62	Y62	Z62	X63	Y63	Z63	X64	Y64	Z64	X65	Y65	Z65	X66	Y66	Z66	X67	Y67	Z67	X68	Y68	Z68	X69	Y69	Z69	X70	Y70	Z70	X71	Y71	Z71	

48	0.47	343.1569213867188	1528.458740234375	421.4480590820312	333.0144958496094	1539.988525390625	216.3444519042969	292.4399719238281	1143.952392578125	286.5201416015625	299.6123657226562	1256.613159179688	291.9124145507812	249.3204650878906	939.310546875	444.4501342773438	293.5787963867188	1359.212158203125	108.0096054077148	163.5811004638672	1353.235961914062	129.1054840087891	60.98501968383789	985.844482421875	463.0081176757812	19.16261100769043	1021.868103027344	469.4751892089844	-25.52819633483887	984.01318359375	436.4501342773438	227.0694427490234	1545.12109375	344.004638671875	162.2914581298828	1397.034545898438	231.7482757568359	76.84019470214844	1288.498657226562	435.4039916992188	251.2818603515625	99.6385498046875	100.5853729248047	240.443359375	997.8099365234375	387.4601440429688	134.6119232177734	1347.540771484375	390.3167114257812	187.116455078125	139.7996826171875	115.9201278686523	30.43649291992188	1290.286010742188	259.9276428222656	293.0044250488281	1252.38232421875	5.222752571105957	340.8089599609375	982.416015625	145.9835205078125	13.27734565734863	830.000732421875	361.30029296875	203.7549133300781	415.5183410644531	382.3052978515625	376.1176452636719	909.5606079101562	112.2859802246094	304.4302673339844	1019.683410644531	-14.10856914520264	268.2788696289062	1073.483276367188	-58.54298400878906	185.2797698974609	275.1622314453125	325.3562927246094	63.50159072875977	1135.59033203125	156.5933685302734	238.9259796142578	819.5493774414062	52.81858062744141	167.3490142822266	1054.461547851562	-78.25027465820312	-6.113811492919922	42.92082977294922	154.2986450195312	396.4176025390625	617.3638916015625	154.8562622070312	41.58166885375977	1008.019592285156	143.4763031005859	431.0405883789062	1526.629150390625	306.2416381835938	55.57426452636719	890.5140991210938	81.41417694091797	-22.86405372619629	895.5684814453125	190.4446411132812	195.4342651367188	36.91883087158203	267.3795471191406	85.39618682861328	36.49413681030273	253.8769378662109	-15.69378852844238	39.39574432373047	75.93193054199219	63.37632369995117	280.7730102539062	33.15859222412109	172.4682159423828	41.89481735229492	191.6736907958984	84.58916473388672	688.2063598632812	395.9019470214844	129.8708953857422	236.0745697021484	0.7655138969421387	299.6387023925781	358.2146911621094	110.9686965942383	321.234375	1009.37646484375	406.4832763671875	115.5562896728516	864.6409912109375	364.1565856933594	398.8499450683594	893.6233520507812	167.3196105957031	271.1259765625	846.9190063476562	136.707763671875	321.8182067871094	944.1923217773438	441.448486328125	392.9617004394531	977.6941528320312	386.9221496582031	476.2741394042969	482.8356323242188	234.2479095458984	395.4354553222656	957.180419921875	192.2324066162109	215.6644134521484	154.1037292480469	14.14737510681152	382.2730102539062	907.1100463867188	272.9698486328125	nan	nan	nan	nan	nan	nan	nan	nan	nan	nan	nan	nan	nan	nan	nan	nan	nan	nan	nan	nan	nan	nan	nan	nan	nan	nan	nan	nan	nan	nan	nan	nan	nan	nan	nan	nan	nan	nan	nan	nan	nan	nan	nan	nan	nan	nan	nan	nan	nan	nan	nan	nan	nan	nan	
49	0.48	372.636474609375	1531.29541015625	439.7374267578125	362.2752685546875	1544.160766601562	234.7350311279297	324.809326171875	1149.12451171875	302.7326965332031	330.9397277832031	1261.629516601562	307.6747741699219	298.5993957519531	955.9708862304688	459.7602844238281	319.2819519042969	1364.059326171875	124.4002990722656	189.9363250732422	1356.1279296875	148.8645477294922	107.9204635620117	990.4032592773438	487.8539428710938	64.45088958740234	1023.941711425781	496.3724670410156	19.70103645324707	983.3326416015625	465.8864135742188	256.4833374023438	1548.369995117188	362.4892578125	190.4410705566406	1399.931518554688	251.208251953125	112.4420394897461	1291.2265625	457.2110290527344	338.9668273925781	95.5325927734375	158.0403289794922	282.4415283203125	1013.063537597656	402.3352355957031	167.5905914306641	1350.895263671875	409.8609924316406	271.46044921875	129.4764251708984	171.848876953125	59.98736190795898	1292.083129882812	283.0862121582031	316.3501281738281	1259.389526367188	20.18238830566406	366.2255859375	984.1061401367188	154.3396911621094	45.73533248901367	832.4555053710938	384.5213928222656	218.1360321044922	409.1633911132812	390.4813537597656	398.70556640625	910.9373168945312	118.6089782714844	326.2498474121094	1025.726806640625	-4.185304641723633	289.8865356445312	1081.314453125	-46.62192153930664	193.1448059082031	270.9799499511719	330.4632263183594	92.97444152832031	1137.72802734375	178.8538665771484	270.9453125	824.1892700195312	75.410888671875	188.5253295898438	1063.904296875	-64.01235198974609	-6.951062679290771	47.70563507080078	156.7376403808594	437.5216369628906	634.5100708007812	181.2059936523438	72.443359375	1009.986999511719	166.1439208984375	460.3991088867188	1530.295654296875	324.4512634277344	87.27235412597656	891.80029296875	104.6796951293945	9.388127326965332	898.2802734375	214.0387420654297	194.2943267822266	37.0576286315918	265.6575622558594	84.8922119140625	36.19888687133789	253.6052093505859	-17.45613861083984	48.02860641479492	78.70872497558594	133.0244445800781	251.8705902099609	84.31882476806641	171.4632110595703	42.69774627685547	191.3180541992188	113.1354370117188	687.3194580078125	414.7746887207031	202.9878997802734	211.5076293945312	53.23813629150391	361.4119873046875	356.9675598144531	151.4035797119141	363.74169921875	1030.002563476562	416.1982421875	148.0410919189453	866.803955078125	386.6741638183594	422.416015625	893.377197265625	172.8580627441406	303.5429382324219	851.78466796875	158.9586639404297	371.0072937011719	965.3895874023438	451.7355346679688	435.51220703125	1002.523132324219	391.1178283691406	526.7897338867188	506.1903991699219	263.2938842773438	421.4786071777344	956.6302490234375	198.6697387695312	296.8124694824219	139.7438049316406	69.26537322998047	408.8734130859375	905.5917358398438	279.4038391113281	nan	nan	nan	nan	nan	nan	nan	nan	nan	nan	nan	nan	nan	nan	nan	nan	nan	nan	nan	nan	nan	nan	nan	nan	nan	nan	nan	nan	nan	nan	nan	nan	nan	nan	nan	nan	nan	nan	nan	nan	nan	nan	nan	nan	nan	nan	nan	nan	nan	nan	nan	nan	nan	nan	
50	0.49	401.9465942382812	1534.684204101562	458.0155944824219	391.726318359375	1548.8359375	253.1073760986328	357.1475524902344	1154.949462890625	319.3848266601562	362.2277221679688	1267.26123046875	323.709228515625	344.1161804199219	972.3497314453125	475.1006164550781	345.4020690917969	1369.27197265625	141.0212707519531	216.7589416503906	1359.370483398438	168.4260406494141	152.2789306640625	996.1651000976562	511.8091735839844	107.5471878051758	1027.550659179688	522.1902465820312	62.90779495239258	984.4830932617188	494.0470275878906	285.8502807617188	1552.093383789062	380.7512512207031	218.8062286376953	1403.262084960938	270.431884765625	147.4193420410156	1294.948974609375	478.4314270019531	426.0807800292969	93.09386444091797	216.3787231445312	321.5361938476562	1027.816772460938	417.479736328125	200.2364501953125	1354.936279296875	429.0268859863281	355.749755859375	120.7450942993164	229.0344543457031	89.76127624511719	1294.348999023438	305.7242431640625	340.2084655761719	1266.8173828125	35.52487945556641	392.5246276855469	987.3811645507812	163.4698638916016	78.40713500976562	835.313720703125	407.6765441894531	232.8753662109375	404.5687255859375	399.0022583007812	421.4859924316406	913.4844970703125	126.4180679321289	348.5814819335938	1032.3037109375	6.589402675628662	312.077392578125	1089.45751953125	-34.09094619750977	201.47412109375	268.7935485839844	336.3913269042969	122.9982376098633	1140.27197265625	201.070068359375	303.7380981445312	829.7216186523438	98.33713531494141	210.447998046875	1073.44140625	-48.98442459106445	-7.369166851043701	54.58638763427734	160.9336700439453	476.7187805175781	651.0293579101562	206.2902374267578	104.0065002441406	1012.421569824219	189.0130615234375	489.7994689941406	1534.546997070312	342.8161315917969	119.7554779052734	893.8721923828125	127.9784622192383	42.30145645141602	901.4916381835938	237.5371856689453	193.1781768798828	37.08752822875977	263.684326171875	84.78252410888672	36.14031982421875	253.8228912353516	-18.79757499694824	59.56727981567383	83.60523223876953	204.2611846923828	222.8090209960938	137.3757934570312	170.5344696044922	43.94528961181641	191.1454315185547	141.7914886474609	687.1610717773438	433.6211547851562	277.3297119140625	186.7771148681641	107.5959854125977	421.9606018066406	354.7317504882812	191.2875061035156	402.721923828125	1049.68017578125	426.845703125	180.8303985595703	869.4121704101562	409.460693359375	446.4560241699219	894.7447509765625	179.7571716308594	336.3125915527344	857.244384765625	181.7442626953125	416.0755615234375	985.8794555664062	462.5321655273438	473.7763061523438	1025.7890625	396.3789672851562	573.6486206054688	527.9405517578125	289.8586730957031	448.564697265625	957.8805541992188	205.6765441894531	378.2921142578125	125.966178894043	125.9255218505859	436.8313598632812	906.8582153320312	286.9008483886719	nan	nan	nan	nan	nan	nan	nan	nan	nan	nan	nan	nan	nan	nan	nan	nan	nan	nan	nan	nan	nan	nan	nan	nan	nan	nan	nan	nan	nan	nan	nan	nan	nan	nan	nan	nan	nan	nan	nan	nan	nan	nan	nan	nan	nan	nan	nan	nan	nan	nan	nan	nan	nan	nan	
51	0.5	431.1559143066406	1538.56201171875	476.2899780273438	421.4193725585938	1553.849365234375	271.4620971679688	389.4055786132812	1161.188720703125	336.5752563476562	393.4568481445312	1273.28271484375	340.1560668945312	385.8096923828125	987.6356201171875	490.6750183105469	372.0596008300781	1374.713623046875	157.9966278076172	244.1121063232422	1362.89306640625	187.8695068359375	193.7055053710938	1002.657592773438	534.8057861328125	148.0569915771484	1032.294677734375	546.8006591796875	103.6105270385742	987.1683349609375	520.7088012695312	315.2251892089844	1556.20068359375	398.8051147460938	247.4344940185547	1406.958984375	289.5017700195312	181.6235198974609	1299.412231445312	499.1298522949219	511.6543579101562	92.42502593994141	275.3536071777344	357.8597106933594	1041.484375	433.0746765136719	232.4968414306641	1359.481323242188	447.9610290527344	439.0532836914062	114.0676040649414	287.0231323242188	119.7287445068359	1297.025634765625	327.8633728027344	364.8270874023438	1274.418701171875	51.40277099609375	419.8837585449219	991.8184814453125	173.82275390625	111.2414627075195	838.6181640625	430.67626953125	248.7810363769531	401.9273681640625	408.2995910644531	444.9143371582031	916.9072265625	136.0928039550781	371.70703125	1039.066528320312	18.54547500610352	335.0836486816406	1097.566528320312	-20.63894462585449	211.0444641113281	268.786376953125	343.6101379394531	153.55517578125	1143.197387695312	223.1708221435547	337.2063293457031	835.8623657226562	121.5803298950195	233.3565216064453	1082.695922851562	-32.94313812255859	-6.978663444519043	63.84089660644531	167.3992004394531	514.2149658203125	666.0762939453125	230.1673126220703	136.2428131103516	1015.309387207031	211.9758911132812	519.294189453125	1539.254516601562	361.3421630859375	152.9208984375	896.6926879882812	151.2011108398438	75.80198669433594	905.18212890625	260.8345031738281	192.2079467773438	37.00629806518555	261.6311340332031	85.28485870361328	36.51708602905273	254.8473205566406	-19.19483947753906	74.23564147949219	91.22283172607422	276.9195251464844	194.6254272460938	191.5381622314453	169.8087615966797	45.80102157592773	191.3618621826172	170.6805572509766	687.8619995117188	452.5386047363281	352.7192993164062	162.6566925048828	163.2852478027344	481.2807006835938	351.3846740722656	230.4862518310547	438.4467468261719	1067.671142578125	438.7952270507812	213.8662872314453	872.5123901367188	432.4907836914062	471.3628234863281	897.3720703125	188.4243469238281	369.3337097167969	863.0399780273438	205.0255737304688	457.1155395507812	1004.769409179688	474.2569885253906	508.2232055664062	1046.685302734375	403.3249206542969	616.947509765625	546.9992065429688	314.30419921875	476.8081665039062	960.5322265625	213.8391571044922	459.5781860351562	113.0824890136719	183.9067535400391	466.3177490234375	910.1812744140625	295.8298645019531	nan	nan	nan	nan	nan	nan	nan	nan	nan	nan	nan	nan	nan	nan	nan	nan	nan	nan	nan	nan	nan	nan	nan	nan	nan	nan	nan	nan	nan	nan	nan	nan	nan	nan	nan	nan	nan	nan	nan	nan	nan	nan	nan	nan	nan	nan	nan	nan	nan	nan	nan	nan	nan	nan	
